Coordinates
version=1
nRows=27
nColumns=12
inDegrees=yes

Units are S.I. units (second, meters, Newtons, ...)
Angles are in degrees

endheader
time	SC_y	SC_z	SC_x	AC_y	AC_z	AC_x	GH_y	GH_z	GH_yy	EL_x	PS_y
       0.0              -13.55          4.209          25.08          58.82         -17.95         -12.97         -27.13         -5.317         -122.4          107.5          34.21
   0.03521              -13.56          4.212          25.08          58.82         -17.95         -12.97         -27.14         -5.318         -122.4          107.5          34.22
   0.07041              -13.56          4.216          25.09          58.82         -17.95         -12.97         -27.15         -5.318         -122.3          107.5          34.22
    0.1056              -13.57           4.22          25.09          58.83         -17.94         -12.97         -27.16         -5.319         -122.3          107.5          34.23
    0.1408              -13.57          4.224          25.09          58.83         -17.94         -12.97         -27.17          -5.32         -122.3          107.5          34.23
     0.176              -13.57          4.229          25.09          58.83         -17.93         -12.97         -27.18         -5.322         -122.2          107.5          34.24
    0.2112              -13.58          4.233           25.1          58.83         -17.93         -12.97          -27.2         -5.323         -122.2          107.5          34.25
    0.2464              -13.58          4.238           25.1          58.83         -17.92         -12.97         -27.21         -5.324         -122.1          107.5          34.25
    0.2816              -13.59          4.244           25.1          58.83         -17.92         -12.97         -27.23         -5.325         -122.1          107.5          34.26
    0.3169               -13.6           4.25           25.1          58.84         -17.91         -12.97         -27.25         -5.327         -122.0          107.5          34.27
    0.3521               -13.6          4.256          25.11          58.84         -17.91         -12.97         -27.26         -5.328         -121.9          107.5          34.28
    0.3873              -13.61          4.263          25.11          58.84          -17.9         -12.97         -27.28          -5.33         -121.9          107.5          34.29
    0.4225              -13.62           4.27          25.12          58.84         -17.89         -12.97          -27.3         -5.332         -121.8          107.5           34.3
    0.4577              -13.63          4.278          25.12          58.85         -17.88         -12.97         -27.33         -5.333         -121.7          107.5          34.31
    0.4929              -13.64          4.286          25.12          58.85         -17.88         -12.97         -27.35         -5.335         -121.6          107.5          34.32
    0.5281              -13.65          4.296          25.13          58.85         -17.87         -12.97         -27.38         -5.338         -121.6          107.5          34.33
    0.5633              -13.66          4.306          25.13          58.86         -17.86         -12.96         -27.41          -5.34         -121.5          107.5          34.34
    0.5985              -13.67          4.317          25.14          58.86         -17.85         -12.96         -27.44         -5.343         -121.3          107.5          34.36
    0.6337              -13.68          4.329          25.15          58.87         -17.83         -12.96         -27.47         -5.346         -121.2          107.6          34.38
    0.6689               -13.7          4.342          25.15          58.87         -17.82         -12.96         -27.51         -5.349         -121.1          107.6          34.39
    0.7041              -13.71          4.356          25.16          58.88         -17.81         -12.96         -27.55         -5.352         -121.0          107.6          34.41
    0.7393              -13.73          4.372          25.17          58.88         -17.79         -12.96          -27.6         -5.356         -120.8          107.6          34.43
    0.7745              -13.75          4.389          25.18          58.89         -17.77         -12.96         -27.65          -5.36         -120.6          107.6          34.46
    0.8097              -13.77          4.409          25.19          58.89         -17.75         -12.96         -27.71         -5.365         -120.4          107.6          34.48
    0.8449              -13.79           4.43           25.2           58.9         -17.73         -12.96         -27.77          -5.37         -120.2          107.6          34.51
    0.8801              -13.82          4.454          25.21          58.91         -17.71         -12.95         -27.84         -5.376         -120.0          107.6          34.55
    0.9154              -13.84          4.481          25.23          58.92         -17.68         -12.95         -27.92         -5.382         -119.7          107.7          34.58
